<svg xmlns="http://www.w3.org/2000/svg" xmlns:xlink="http://www.w3.org/1999/xlink" width="500" zoomAndPan="magnify" viewBox="0 0 375 374.999991" height="500" preserveAspectRatio="xMidYMid meet" version="1.0"><defs><g/><clipPath id="2ed5b59baf"><path d="M 124 78.339844 L 251 78.339844 L 251 205 L 124 205 Z M 124 78.339844 " clip-rule="nonzero"/></clipPath></defs><rect x="-37.5" width="450" fill="#ffffff" y="-37.499999" height="449.999989" fill-opacity="1"/><rect x="-37.5" width="450" fill="#f4f5f7" y="-37.499999" height="449.999989" fill-opacity="1"/><path fill="#000000" d="M 195.808594 120.710938 L 191.628906 120.710938 C 191.628906 120.4375 191.605469 120.164062 191.550781 119.894531 C 191.496094 119.625 191.417969 119.363281 191.3125 119.109375 C 191.207031 118.855469 191.078125 118.613281 190.925781 118.382812 C 190.773438 118.15625 190.601562 117.941406 190.40625 117.746094 C 190.210938 117.554688 190 117.378906 189.773438 117.226562 C 189.546875 117.074219 189.304688 116.945312 189.050781 116.839844 C 188.796875 116.734375 188.535156 116.65625 188.265625 116.601562 C 187.996094 116.546875 187.726562 116.519531 187.453125 116.519531 C 187.175781 116.519531 186.90625 116.546875 186.636719 116.601562 C 186.367188 116.65625 186.105469 116.734375 185.851562 116.839844 C 185.597656 116.945312 185.359375 117.074219 185.128906 117.226562 C 184.902344 117.378906 184.691406 117.554688 184.496094 117.746094 C 184.300781 117.941406 184.128906 118.15625 183.976562 118.382812 C 183.824219 118.613281 183.695312 118.855469 183.589844 119.109375 C 183.484375 119.363281 183.40625 119.625 183.351562 119.894531 C 183.300781 120.164062 183.273438 120.4375 183.273438 120.710938 L 170.734375 120.710938 C 170.460938 120.710938 170.1875 120.738281 169.917969 120.792969 C 169.648438 120.847656 169.390625 120.925781 169.136719 121.03125 C 168.882812 121.136719 168.640625 121.265625 168.414062 121.417969 C 168.183594 121.570312 167.972656 121.746094 167.78125 121.941406 C 167.585938 122.136719 167.410156 122.347656 167.257812 122.574219 C 167.105469 122.804688 166.976562 123.046875 166.875 123.300781 C 166.769531 123.554688 166.6875 123.816406 166.636719 124.085938 C 166.582031 124.355469 166.554688 124.628906 166.554688 124.90625 C 166.554688 125.179688 166.582031 125.453125 166.636719 125.722656 C 166.6875 125.992188 166.769531 126.253906 166.875 126.507812 C 166.976562 126.761719 167.105469 127.003906 167.257812 127.234375 C 167.410156 127.464844 167.585938 127.675781 167.78125 127.871094 C 167.972656 128.0625 168.183594 128.238281 168.414062 128.390625 C 168.640625 128.542969 168.882812 128.671875 169.136719 128.777344 C 169.390625 128.882812 169.648438 128.964844 169.917969 129.015625 C 170.1875 129.070312 170.460938 129.097656 170.734375 129.097656 L 174.914062 129.097656 L 174.914062 137.480469 L 170.734375 137.480469 C 170.460938 137.480469 170.1875 137.507812 169.917969 137.5625 C 169.648438 137.617188 169.390625 137.695312 169.136719 137.800781 C 168.882812 137.90625 168.640625 138.035156 168.414062 138.1875 C 168.183594 138.339844 167.972656 138.515625 167.78125 138.710938 C 167.585938 138.90625 167.410156 139.117188 167.257812 139.34375 C 167.105469 139.574219 166.976562 139.816406 166.875 140.070312 C 166.769531 140.324219 166.6875 140.585938 166.636719 140.855469 C 166.582031 141.125 166.554688 141.398438 166.554688 141.675781 C 166.554688 141.949219 166.582031 142.222656 166.636719 142.492188 C 166.6875 142.761719 166.769531 143.023438 166.875 143.277344 C 166.976562 143.53125 167.105469 143.773438 167.257812 144.003906 C 167.410156 144.234375 167.585938 144.445312 167.78125 144.640625 C 167.972656 144.832031 168.183594 145.007812 168.414062 145.160156 C 168.640625 145.3125 168.882812 145.441406 169.136719 145.546875 C 169.390625 145.652344 169.648438 145.734375 169.917969 145.785156 C 170.1875 145.839844 170.460938 145.867188 170.734375 145.867188 L 174.914062 145.867188 L 174.914062 154.25 L 170.734375 154.25 C 170.460938 154.25 170.1875 154.277344 169.917969 154.332031 C 169.648438 154.386719 169.390625 154.464844 169.136719 154.570312 C 168.882812 154.675781 168.640625 154.804688 168.414062 154.957031 C 168.183594 155.109375 167.972656 155.285156 167.78125 155.480469 C 167.585938 155.675781 167.410156 155.886719 167.257812 156.113281 C 167.105469 156.34375 166.976562 156.585938 166.875 156.839844 C 166.769531 157.09375 166.6875 157.355469 166.636719 157.625 C 166.582031 157.894531 166.554688 158.167969 166.554688 158.445312 C 166.554688 158.71875 166.582031 158.992188 166.636719 159.261719 C 166.6875 159.53125 166.769531 159.792969 166.875 160.046875 C 166.976562 160.304688 167.105469 160.542969 167.257812 160.773438 C 167.410156 161.003906 167.585938 161.214844 167.78125 161.410156 C 167.972656 161.601562 168.183594 161.777344 168.414062 161.929688 C 168.640625 162.082031 168.882812 162.210938 169.136719 162.316406 C 169.390625 162.421875 169.648438 162.503906 169.917969 162.554688 C 170.1875 162.609375 170.460938 162.636719 170.734375 162.636719 L 183.273438 162.636719 C 183.273438 162.910156 183.300781 163.183594 183.351562 163.453125 C 183.40625 163.722656 183.484375 163.988281 183.589844 164.242188 C 183.695312 164.496094 183.824219 164.738281 183.976562 164.964844 C 184.128906 165.195312 184.300781 165.40625 184.496094 165.601562 C 184.691406 165.796875 184.902344 165.96875 185.128906 166.121094 C 185.359375 166.273438 185.597656 166.40625 185.851562 166.507812 C 186.105469 166.613281 186.367188 166.695312 186.636719 166.75 C 186.90625 166.800781 187.175781 166.828125 187.453125 166.828125 C 187.726562 166.828125 187.996094 166.800781 188.265625 166.75 C 188.535156 166.695312 188.796875 166.613281 189.050781 166.507812 C 189.304688 166.40625 189.546875 166.273438 189.773438 166.121094 C 190 165.96875 190.210938 165.796875 190.40625 165.601562 C 190.601562 165.40625 190.773438 165.195312 190.925781 164.964844 C 191.078125 164.738281 191.207031 164.496094 191.3125 164.242188 C 191.417969 163.988281 191.496094 163.722656 191.550781 163.453125 C 191.605469 163.183594 191.628906 162.910156 191.628906 162.636719 L 195.808594 162.636719 C 197.019531 162.632812 198.203125 162.460938 199.363281 162.113281 C 200.519531 161.769531 201.605469 161.265625 202.621094 160.601562 C 203.632812 159.941406 204.53125 159.148438 205.316406 158.226562 C 206.105469 157.304688 206.742188 156.289062 207.234375 155.183594 C 207.726562 154.074219 208.054688 152.917969 208.210938 151.71875 C 208.371094 150.515625 208.359375 149.316406 208.171875 148.117188 C 207.984375 146.917969 207.632812 145.769531 207.113281 144.675781 C 206.597656 143.578125 205.933594 142.578125 205.128906 141.675781 C 205.933594 140.769531 206.597656 139.769531 207.113281 138.675781 C 207.632812 137.578125 207.984375 136.429688 208.171875 135.234375 C 208.359375 134.035156 208.371094 132.832031 208.210938 131.632812 C 208.054688 130.429688 207.726562 129.273438 207.234375 128.167969 C 206.742188 127.058594 206.105469 126.042969 205.316406 125.121094 C 204.53125 124.199219 203.632812 123.40625 202.621094 122.746094 C 201.605469 122.085938 200.519531 121.582031 199.363281 121.234375 C 198.203125 120.890625 197.019531 120.714844 195.808594 120.710938 Z M 195.808594 129.097656 C 196.085938 129.097656 196.355469 129.125 196.625 129.179688 C 196.894531 129.230469 197.15625 129.3125 197.410156 129.417969 C 197.664062 129.523438 197.902344 129.652344 198.132812 129.804688 C 198.359375 129.957031 198.570312 130.128906 198.765625 130.324219 C 198.957031 130.519531 199.132812 130.730469 199.285156 130.960938 C 199.4375 131.1875 199.566406 131.429688 199.671875 131.683594 C 199.777344 131.941406 199.855469 132.203125 199.910156 132.472656 C 199.960938 132.742188 199.988281 133.015625 199.988281 133.289062 C 199.988281 133.566406 199.960938 133.835938 199.910156 134.109375 C 199.855469 134.378906 199.777344 134.640625 199.671875 134.894531 C 199.566406 135.148438 199.4375 135.390625 199.285156 135.617188 C 199.132812 135.847656 198.957031 136.058594 198.765625 136.253906 C 198.570312 136.449219 198.359375 136.621094 198.132812 136.777344 C 197.902344 136.929688 197.664062 137.058594 197.410156 137.164062 C 197.15625 137.269531 196.894531 137.347656 196.625 137.402344 C 196.355469 137.457031 196.085938 137.480469 195.808594 137.480469 L 183.273438 137.480469 L 183.273438 129.097656 Z M 195.808594 154.25 L 183.273438 154.25 L 183.273438 145.867188 L 195.808594 145.867188 C 196.085938 145.867188 196.355469 145.894531 196.625 145.949219 C 196.894531 146 197.15625 146.082031 197.410156 146.1875 C 197.664062 146.292969 197.902344 146.421875 198.132812 146.574219 C 198.359375 146.726562 198.570312 146.898438 198.765625 147.09375 C 198.957031 147.289062 199.132812 147.5 199.285156 147.730469 C 199.4375 147.957031 199.566406 148.199219 199.671875 148.453125 C 199.777344 148.710938 199.855469 148.972656 199.910156 149.242188 C 199.960938 149.511719 199.988281 149.785156 199.988281 150.058594 C 199.988281 150.335938 199.960938 150.605469 199.910156 150.878906 C 199.855469 151.148438 199.777344 151.410156 199.671875 151.664062 C 199.566406 151.917969 199.4375 152.160156 199.285156 152.386719 C 199.132812 152.617188 198.957031 152.828125 198.765625 153.023438 C 198.570312 153.21875 198.359375 153.390625 198.132812 153.546875 C 197.902344 153.699219 197.664062 153.828125 197.410156 153.933594 C 197.15625 154.039062 196.894531 154.117188 196.625 154.171875 C 196.355469 154.226562 196.085938 154.25 195.808594 154.25 Z M 195.808594 154.25 " fill-opacity="1" fill-rule="nonzero"/><g clip-path="url(#2ed5b59baf)"><path fill="#000000" d="M 139.660156 100.988281 C 138.378906 102.503906 137.171875 104.074219 136.035156 105.707031 C 134.902344 107.335938 133.847656 109.019531 132.875 110.75 C 131.898438 112.480469 131.007812 114.253906 130.199219 116.070312 C 129.394531 117.886719 128.671875 119.734375 128.039062 121.621094 C 127.40625 123.503906 126.867188 125.414062 126.414062 127.351562 C 125.960938 129.285156 125.601562 131.238281 125.335938 133.207031 C 125.066406 135.179688 124.894531 137.15625 124.8125 139.144531 C 124.734375 141.128906 124.746094 143.117188 124.855469 145.101562 C 124.964844 147.085938 125.164062 149.0625 125.457031 151.027344 C 125.753906 152.996094 126.140625 154.941406 126.617188 156.871094 C 127.097656 158.800781 127.664062 160.703125 128.324219 162.578125 C 128.984375 164.453125 129.726562 166.292969 130.5625 168.097656 C 131.394531 169.902344 132.308594 171.664062 133.308594 173.382812 C 134.304688 175.097656 135.382812 176.765625 136.539062 178.378906 C 137.695312 179.992188 138.925781 181.550781 140.230469 183.046875 C 141.535156 184.546875 142.90625 185.976562 144.34375 187.34375 C 145.785156 188.710938 147.285156 190.007812 148.84375 191.230469 C 150.40625 192.457031 152.023438 193.605469 153.691406 194.675781 C 155.363281 195.746094 157.078125 196.734375 158.84375 197.640625 C 160.605469 198.550781 162.410156 199.371094 164.25 200.105469 C 166.09375 200.84375 167.964844 201.488281 169.867188 202.046875 C 171.769531 202.605469 173.691406 203.070312 175.640625 203.445312 C 177.585938 203.820312 179.546875 204.101562 181.519531 204.289062 C 183.492188 204.476562 185.46875 204.570312 187.453125 204.570312 C 189.433594 204.570312 191.410156 204.476562 193.382812 204.289062 C 195.355469 204.101562 197.316406 203.820312 199.261719 203.445312 C 201.210938 203.070312 203.132812 202.605469 205.035156 202.046875 C 206.9375 201.488281 208.8125 200.84375 210.652344 200.105469 C 212.492188 199.371094 214.296875 198.550781 216.058594 197.640625 C 217.824219 196.734375 219.539062 195.746094 221.210938 194.675781 C 222.878906 193.605469 224.496094 192.457031 226.058594 191.230469 C 227.617188 190.007812 229.117188 188.710938 230.558594 187.34375 C 231.996094 185.976562 233.367188 184.546875 234.671875 183.046875 C 235.976562 181.550781 237.207031 179.992188 238.363281 178.378906 C 239.519531 176.765625 240.597656 175.097656 241.59375 173.382812 C 242.59375 171.664062 243.507812 169.902344 244.34375 168.097656 C 245.175781 166.292969 245.921875 164.453125 246.578125 162.578125 C 247.238281 160.703125 247.804688 158.800781 248.285156 156.871094 C 248.761719 154.941406 249.148438 152.996094 249.445312 151.027344 C 249.738281 149.0625 249.9375 147.085938 250.046875 145.101562 C 250.15625 143.117188 250.167969 141.128906 250.089844 139.144531 C 250.007812 137.15625 249.835938 135.179688 249.566406 133.207031 C 249.300781 131.238281 248.941406 129.285156 248.488281 127.351562 C 248.035156 125.414062 247.496094 123.503906 246.863281 121.621094 C 246.230469 119.734375 245.511719 117.886719 244.703125 116.070312 C 243.894531 114.253906 243.003906 112.480469 242.027344 110.75 C 241.054688 109.019531 240 107.335938 238.867188 105.707031 C 237.730469 104.074219 236.523438 102.503906 235.242188 100.988281 C 234.503906 100.125 233.746094 99.285156 232.964844 98.460938 C 232.1875 97.640625 231.382812 96.839844 230.558594 96.0625 C 229.738281 95.285156 228.890625 94.53125 228.027344 93.800781 C 227.164062 93.066406 226.28125 92.359375 225.378906 91.675781 C 224.476562 90.992188 223.554688 90.332031 222.617188 89.695312 C 221.679688 89.0625 220.726562 88.453125 219.753906 87.871094 C 218.785156 87.289062 217.800781 86.734375 216.800781 86.203125 C 215.796875 85.671875 214.785156 85.171875 213.757812 84.695312 C 212.730469 84.222656 211.691406 83.777344 210.640625 83.359375 C 209.585938 82.9375 208.527344 82.550781 207.453125 82.1875 C 206.378906 81.828125 205.300781 81.496094 204.210938 81.195312 C 203.117188 80.890625 202.019531 80.621094 200.917969 80.375 C 199.8125 80.132812 198.699219 79.921875 197.585938 79.738281 C 196.46875 79.554688 195.347656 79.402344 194.222656 79.28125 C 193.097656 79.15625 191.972656 79.066406 190.84375 79.003906 C 189.710938 78.945312 188.582031 78.914062 187.453125 78.914062 C 186.320312 78.914062 185.191406 78.945312 184.058594 79.003906 C 182.929688 79.066406 181.804688 79.15625 180.679688 79.28125 C 179.554688 79.402344 178.433594 79.554688 177.316406 79.738281 C 176.203125 79.921875 175.089844 80.132812 173.984375 80.375 C 172.882812 80.621094 171.785156 80.890625 170.695312 81.195312 C 169.601562 81.496094 168.523438 81.828125 167.449219 82.1875 C 166.378906 82.550781 165.316406 82.9375 164.265625 83.359375 C 163.210938 83.777344 162.171875 84.222656 161.144531 84.695312 C 160.117188 85.171875 159.105469 85.671875 158.105469 86.203125 C 157.101562 86.734375 156.117188 87.289062 155.148438 87.871094 C 154.175781 88.453125 153.222656 89.0625 152.285156 89.695312 C 151.347656 90.332031 150.425781 90.992188 149.523438 91.675781 C 148.621094 92.359375 147.738281 93.066406 146.875 93.800781 C 146.011719 94.53125 145.167969 95.285156 144.34375 96.0625 C 143.519531 96.839844 142.71875 97.640625 141.9375 98.460938 C 141.15625 99.285156 140.398438 100.125 139.660156 100.988281 Z M 219.964844 174.355469 C 218.960938 175.359375 217.914062 176.320312 216.824219 177.226562 C 215.734375 178.136719 214.601562 178.992188 213.433594 179.796875 C 212.261719 180.601562 211.058594 181.351562 209.816406 182.042969 C 208.578125 182.734375 207.308594 183.367188 206.011719 183.941406 C 204.714844 184.515625 203.390625 185.03125 202.046875 185.480469 C 200.703125 185.933594 199.339844 186.320312 197.957031 186.648438 C 196.578125 186.972656 195.183594 187.234375 193.777344 187.429688 C 192.371094 187.625 190.960938 187.753906 189.542969 187.820312 C 188.128906 187.882812 186.710938 187.882812 185.292969 187.816406 C 183.875 187.75 182.464844 187.617188 181.0625 187.417969 C 179.65625 187.222656 178.261719 186.957031 176.882812 186.632812 C 175.503906 186.304688 174.140625 185.914062 172.796875 185.460938 C 171.449219 185.007812 170.128906 184.492188 168.832031 183.914062 C 167.535156 183.339844 166.269531 182.703125 165.03125 182.007812 C 163.792969 181.316406 162.585938 180.566406 161.417969 179.757812 C 160.25 178.953125 159.121094 178.09375 158.03125 177.183594 C 157.605469 176.808594 157.128906 176.523438 156.597656 176.332031 C 156.066406 176.136719 155.519531 176.042969 154.953125 176.054688 C 154.390625 176.066406 153.847656 176.179688 153.324219 176.398438 C 152.800781 176.613281 152.335938 176.917969 151.929688 177.308594 C 151.738281 177.5 151.53125 177.671875 151.308594 177.820312 C 151.082031 177.96875 150.847656 178.09375 150.597656 178.191406 C 150.347656 178.292969 150.089844 178.367188 149.824219 178.414062 C 149.558594 178.457031 149.292969 178.476562 149.023438 178.46875 C 148.753906 178.460938 148.492188 178.421875 148.230469 178.359375 C 147.96875 178.296875 147.714844 178.207031 147.472656 178.089844 C 147.230469 177.972656 147.003906 177.835938 146.789062 177.671875 C 146.574219 177.507812 146.378906 177.324219 146.203125 177.121094 C 145.101562 175.828125 144.0625 174.484375 143.085938 173.09375 C 142.109375 171.703125 141.199219 170.269531 140.359375 168.789062 C 139.515625 167.3125 138.746094 165.800781 138.042969 164.25 C 137.34375 162.703125 136.714844 161.125 136.164062 159.515625 C 135.609375 157.90625 135.132812 156.277344 134.730469 154.625 C 134.328125 152.96875 134.003906 151.300781 133.761719 149.617188 C 133.515625 147.933594 133.347656 146.242188 133.261719 144.542969 C 133.171875 142.84375 133.164062 141.144531 133.234375 139.445312 C 133.304688 137.746094 133.457031 136.054688 133.683594 134.367188 C 133.914062 132.679688 134.222656 131.007812 134.605469 129.351562 C 134.992188 127.695312 135.453125 126.058594 135.992188 124.445312 C 136.527344 122.832031 137.140625 121.25 137.828125 119.691406 C 138.511719 118.136719 139.269531 116.617188 140.097656 115.128906 C 140.925781 113.644531 141.820312 112.203125 142.78125 110.800781 C 143.746094 109.398438 144.769531 108.046875 145.859375 106.742188 C 146.949219 105.4375 148.09375 104.1875 149.300781 102.992188 C 150.503906 101.792969 151.765625 100.65625 153.074219 99.578125 C 154.386719 98.5 155.746094 97.484375 157.152344 96.535156 C 158.558594 95.582031 160.007812 94.699219 161.496094 93.882812 C 162.984375 93.070312 164.507812 92.328125 166.066406 91.65625 C 167.625 90.984375 169.210938 90.386719 170.824219 89.863281 C 172.4375 89.339844 174.074219 88.894531 175.730469 88.523438 C 177.386719 88.15625 179.054688 87.863281 180.738281 87.652344 C 182.421875 87.441406 184.109375 87.308594 185.804688 87.253906 C 187.5 87.199219 189.195312 87.226562 190.886719 87.332031 C 192.578125 87.4375 194.265625 87.621094 195.9375 87.886719 C 197.613281 88.148438 199.273438 88.492188 200.917969 88.910156 C 202.5625 89.332031 204.183594 89.828125 205.78125 90.398438 C 207.378906 90.96875 208.945312 91.617188 210.480469 92.335938 C 212.019531 93.054688 213.519531 93.84375 214.980469 94.703125 C 216.445312 95.5625 217.867188 96.492188 219.242188 97.484375 C 220.621094 98.476562 221.945312 99.535156 223.226562 100.652344 C 223.402344 100.804688 223.558594 100.972656 223.699219 101.15625 C 223.84375 101.339844 223.964844 101.535156 224.0625 101.746094 C 224.164062 101.953125 224.242188 102.171875 224.300781 102.398438 C 224.355469 102.621094 224.386719 102.851562 224.394531 103.085938 C 224.40625 103.316406 224.390625 103.546875 224.351562 103.777344 C 224.3125 104.003906 224.25 104.226562 224.167969 104.445312 C 224.082031 104.660156 223.976562 104.867188 223.847656 105.0625 C 223.722656 105.253906 223.578125 105.433594 223.414062 105.597656 L 222.976562 106.039062 C 222.582031 106.4375 222.277344 106.898438 222.054688 107.414062 C 221.835938 107.929688 221.714844 108.464844 221.695312 109.027344 C 221.675781 109.589844 221.757812 110.132812 221.945312 110.664062 C 222.128906 111.191406 222.402344 111.671875 222.765625 112.097656 C 223.675781 113.191406 224.535156 114.324219 225.339844 115.496094 C 226.144531 116.671875 226.894531 117.878906 227.589844 119.121094 C 228.285156 120.363281 228.917969 121.636719 229.496094 122.941406 C 230.074219 124.242188 230.585938 125.566406 231.042969 126.917969 C 231.496094 128.269531 231.886719 129.636719 232.214844 131.023438 C 232.542969 132.410156 232.804688 133.808594 233.003906 135.21875 C 233.203125 136.628906 233.335938 138.046875 233.402344 139.46875 C 233.46875 140.894531 233.46875 142.316406 233.40625 143.738281 C 233.34375 145.164062 233.214844 146.582031 233.019531 147.992188 C 232.824219 149.402344 232.5625 150.800781 232.238281 152.1875 C 231.914062 153.578125 231.527344 154.945312 231.074219 156.296875 C 230.625 157.648438 230.113281 158.976562 229.539062 160.277344 C 228.964844 161.582031 228.332031 162.855469 227.644531 164.101562 C 226.953125 165.347656 226.203125 166.554688 225.402344 167.730469 C 224.597656 168.90625 223.742188 170.042969 222.835938 171.136719 C 221.925781 172.234375 220.972656 173.285156 219.964844 174.292969 Z M 219.964844 174.355469 " fill-opacity="1" fill-rule="nonzero"/></g><g fill="#000000" fill-opacity="1"><g transform="translate(125.596015, 257.282854)"><g><path d="M 2.328125 -0.746094 C 2.328125 -0.234375 2.558594 0 3.074219 0 L 14.246094 0 C 18.621094 0 20.949219 -2.328125 20.949219 -6.703125 L 20.949219 -30.492188 C 20.949219 -34.867188 18.621094 -37.242188 14.246094 -37.242188 L 3.074219 -37.242188 C 2.558594 -37.242188 2.328125 -36.960938 2.328125 -36.496094 Z M 8.660156 -6.144531 L 8.660156 -31.097656 L 12.941406 -31.097656 C 14.152344 -31.097656 14.804688 -30.445312 14.804688 -29.1875 L 14.804688 -8.007812 C 14.804688 -6.75 14.152344 -6.144531 12.941406 -6.144531 Z M 8.660156 -6.144531 "/></g></g></g><g fill="#000000" fill-opacity="1"><g transform="translate(159.298755, 257.282854)"><g><path d="M 14.617188 -21.695312 L 8.660156 -21.695312 L 8.660156 -36.496094 C 8.660156 -36.960938 8.378906 -37.242188 7.914062 -37.242188 L 3.117188 -37.242188 C 2.558594 -37.242188 2.328125 -36.960938 2.328125 -36.496094 L 2.328125 -0.746094 C 2.328125 -0.28125 2.558594 0 3.117188 0 L 7.914062 0 C 8.378906 0 8.660156 -0.28125 8.660156 -0.746094 L 8.660156 -15.546875 L 14.617188 -15.546875 L 14.617188 -0.746094 C 14.617188 -0.28125 14.898438 0 15.363281 0 L 20.15625 0 C 20.714844 0 20.949219 -0.28125 20.949219 -0.746094 L 20.949219 -36.496094 C 20.949219 -36.960938 20.714844 -37.242188 20.15625 -37.242188 L 15.363281 -37.242188 C 14.898438 -37.242188 14.617188 -36.960938 14.617188 -36.496094 Z M 14.617188 -21.695312 "/></g></g></g><g fill="#000000" fill-opacity="1"><g transform="translate(193.001494, 257.282854)"><g><path d="M 2.140625 -37.242188 C 1.675781 -37.242188 1.398438 -36.960938 1.398438 -36.496094 L 1.398438 -31.84375 C 1.398438 -31.375 1.675781 -31.097656 2.140625 -31.097656 L 7.542969 -31.097656 L 7.542969 -0.746094 C 7.542969 -0.234375 7.820312 0 8.285156 0 L 13.128906 0 C 13.640625 0 13.871094 -0.234375 13.871094 -0.746094 L 13.871094 -31.097656 L 19.273438 -31.097656 C 19.785156 -31.097656 20.015625 -31.375 20.015625 -31.84375 L 20.015625 -36.496094 C 20.015625 -36.960938 19.785156 -37.242188 19.273438 -37.242188 Z M 2.140625 -37.242188 "/></g></g></g><g fill="#000000" fill-opacity="1"><g transform="translate(224.842355, 257.282854)"><g><path d="M 16.621094 -37.242188 C 16.105469 -37.242188 15.875 -36.960938 15.875 -36.496094 L 15.875 -16.851562 L 15.59375 -16.851562 L 8.519531 -36.636719 C 8.378906 -37.054688 8.101562 -37.242188 7.679688 -37.242188 L 3.074219 -37.242188 C 2.605469 -37.242188 2.328125 -36.960938 2.328125 -36.496094 L 2.328125 -0.746094 C 2.328125 -0.28125 2.605469 0 3.074219 0 L 7.914062 0 C 8.425781 0 8.660156 -0.28125 8.660156 -0.746094 L 8.660156 -20.484375 L 8.890625 -20.484375 L 16.015625 -0.605469 C 16.152344 -0.1875 16.433594 0 16.851562 0 L 21.460938 0 C 21.925781 0 22.207031 -0.28125 22.207031 -0.746094 L 22.207031 -36.496094 C 22.207031 -36.960938 21.925781 -37.242188 21.460938 -37.242188 Z M 16.621094 -37.242188 "/></g></g></g><g fill="#000000" fill-opacity="1"><g transform="translate(141.639078, 292.161046)"><g><path d="M 11.9375 -15.996094 C 11.695312 -15.996094 11.539062 -15.855469 11.515625 -15.617188 L 10.699219 -6.257812 L 10.597656 -6.257812 L 8.636719 -15.636719 C 8.578125 -15.875 8.4375 -15.996094 8.199219 -15.996094 L 7 -15.996094 C 6.757812 -15.996094 6.617188 -15.875 6.558594 -15.636719 L 4.578125 -6.257812 L 4.480469 -6.257812 L 3.699219 -15.617188 C 3.679688 -15.855469 3.519531 -15.996094 3.277344 -15.996094 L 1.378906 -15.996094 C 1.121094 -15.996094 0.980469 -15.835938 1 -15.574219 L 2.640625 -0.378906 C 2.660156 -0.121094 2.800781 0 3.058594 0 L 5.058594 0 C 5.296875 0 5.4375 -0.121094 5.5 -0.339844 L 7.597656 -9.398438 L 9.675781 -0.359375 C 9.738281 -0.121094 9.878906 0 10.117188 0 L 12.078125 0 C 12.335938 0 12.476562 -0.121094 12.496094 -0.378906 L 14.214844 -15.574219 C 14.238281 -15.835938 14.097656 -15.996094 13.835938 -15.996094 Z M 11.9375 -15.996094 "/></g></g></g><g fill="#000000" fill-opacity="1"><g transform="translate(162.053135, 292.161046)"><g><path d="M 10.636719 0 C 10.878906 0 10.957031 -0.121094 10.917969 -0.339844 L 7.597656 -15.714844 C 7.558594 -15.917969 7.4375 -15.996094 7.257812 -15.996094 L 4.480469 -15.996094 C 4.300781 -15.996094 4.179688 -15.917969 4.140625 -15.714844 L 0.820312 -0.339844 C 0.761719 -0.121094 0.859375 0 1.078125 0 L 3.21875 0 C 3.398438 0 3.5 -0.101562 3.539062 -0.28125 L 4.078125 -3.199219 L 7.636719 -3.199219 L 8.199219 -0.28125 C 8.238281 -0.101562 8.339844 0 8.519531 0 Z M 7.136719 -5.519531 L 4.578125 -5.519531 L 5.859375 -12.496094 Z M 7.136719 -5.519531 "/></g></g></g><g fill="#000000" fill-opacity="1"><g transform="translate(178.968573, 292.161046)"><g><path d="M 3.71875 -2.640625 L 8.476562 -2.640625 C 8.699219 -2.640625 8.796875 -2.519531 8.796875 -2.320312 L 8.796875 -0.320312 C 8.796875 -0.101562 8.699219 0 8.476562 0 L 1.320312 0 C 1.121094 0 1 -0.101562 1 -0.320312 L 1 -15.675781 C 1 -15.875 1.121094 -15.996094 1.320312 -15.996094 L 3.398438 -15.996094 C 3.617188 -15.996094 3.71875 -15.875 3.71875 -15.675781 Z M 3.71875 -2.640625 "/></g></g></g><g fill="#000000" fill-opacity="1"><g transform="translate(193.96477, 292.161046)"><g><path d="M 3.71875 -2.640625 L 8.476562 -2.640625 C 8.699219 -2.640625 8.796875 -2.519531 8.796875 -2.320312 L 8.796875 -0.320312 C 8.796875 -0.101562 8.699219 0 8.476562 0 L 1.320312 0 C 1.121094 0 1 -0.101562 1 -0.320312 L 1 -15.675781 C 1 -15.875 1.121094 -15.996094 1.320312 -15.996094 L 3.398438 -15.996094 C 3.617188 -15.996094 3.71875 -15.875 3.71875 -15.675781 Z M 3.71875 -2.640625 "/></g></g></g><g fill="#000000" fill-opacity="1"><g transform="translate(208.960963, 292.161046)"><g><path d="M 8.976562 -15.675781 C 8.976562 -15.875 8.898438 -15.996094 8.65625 -15.996094 L 1.300781 -15.996094 C 1.121094 -15.996094 1 -15.875 1 -15.675781 L 1 -0.320312 C 1 -0.121094 1.121094 0 1.300781 0 L 8.65625 0 C 8.898438 0 8.976562 -0.121094 8.976562 -0.320312 L 8.976562 -2.320312 C 8.976562 -2.539062 8.898438 -2.640625 8.65625 -2.640625 L 3.660156 -2.640625 L 3.660156 -6.679688 L 7.476562 -6.679688 C 7.679688 -6.679688 7.796875 -6.796875 7.796875 -7.019531 L 7.796875 -8.996094 C 7.796875 -9.21875 7.679688 -9.335938 7.476562 -9.335938 L 3.660156 -9.335938 L 3.660156 -13.335938 L 8.65625 -13.335938 C 8.898438 -13.335938 8.976562 -13.476562 8.976562 -13.675781 Z M 8.976562 -15.675781 "/></g></g></g><g fill="#000000" fill-opacity="1"><g transform="translate(224.137092, 292.161046)"><g><path d="M 0.917969 -15.996094 C 0.71875 -15.996094 0.601562 -15.875 0.601562 -15.675781 L 0.601562 -13.675781 C 0.601562 -13.476562 0.71875 -13.355469 0.917969 -13.355469 L 3.238281 -13.355469 L 3.238281 -0.320312 C 3.238281 -0.101562 3.359375 0 3.558594 0 L 5.636719 0 C 5.859375 0 5.957031 -0.101562 5.957031 -0.320312 L 5.957031 -13.355469 L 8.277344 -13.355469 C 8.496094 -13.355469 8.597656 -13.476562 8.597656 -13.675781 L 8.597656 -15.675781 C 8.597656 -15.875 8.496094 -15.996094 8.277344 -15.996094 Z M 0.917969 -15.996094 "/></g></g></g></svg>